<svg xmlns:xlink="http://www.w3.org/1999/xlink" xmlns="http://www.w3.org/2000/svg" viewBox="0 0 400.000000 284.000000" class="svg header__btn-icon" aria-hidden="true" width="400"  height="284" ><defs><g id="svg-360" viewBox="0 0 400.000000 284.000000" transform="translate(0.000000,284.000000) scale(0.100000,-0.100000)">
            <path d="M1779 2810 c-816 -57 -1478 -396 -1705 -873 -103 -217 -100 -483 6 -704 193 -397 730 -717 1388 -824 59 -10 71 -15 68 -28 -54 -181 -88 -313 -83 -317 3 -4 126 62 272 145 220 125 273 151 308 152 38 1 39 2 12 8 -29 6 -28 7 42 46 40 22 73 45 73 50 0 13 -458 471 -464 465 -2 -3 -21 -63 -41 -135 -21 -71 -41 -134 -45 -138 -4 -5 -70 3 -146 17 -315 58 -585 160 -800 304 -388 260 -507 595 -322 910 44 76 215 247 308 309 639 427 1730 483 2470 127 520 -250 734 -625 558 -979 -158 -320 -628 -588 -1194 -681 -98 -16 -105 -19 -101 -38 3 -12 11 -69 18 -128 l12 -107 26 5 c14 2 69 11 121 20 502 82 968 313 1211 601 386 454 273 1018 -277 1393 -293 200 -684 334 -1118 385 -162 18 -442 25 -597 15z"></path>
            <path d="M2899 2202 c-76 -39 -113 -101 -113 -185 1 -130 86 -217 214 -217 128 0 214 88 214 217 0 51 -6 70 -30 110 -37 60 -114 103 -184 103 -33 0 -64 -9 -101 -28z m159 -135 c49 -45 11 -137 -58 -137 -69 0 -107 92 -57 137 41 38 73 38 115 0z"></path>
            <path d="M1856 1985 c-49 -17 -93 -59 -117 -110 -16 -35 -19 -68 -19 -286 0 -267 5 -299 56 -366 41 -54 97 -77 184 -77 91 0 155 25 194 77 53 69 71 204 41 304 -34 115 -103 166 -215 160 -36 -1 -73 -7 -82 -11 -16 -7 -18 -1 -18 63 0 63 3 75 25 96 49 50 121 22 132 -50 3 -22 11 -43 17 -47 21 -14 123 -9 136 7 15 18 6 104 -15 144 -19 38 -64 78 -107 95 -46 20 -159 20 -212 1z m139 -435 c33 -13 55 -64 55 -130 0 -122 -73 -179 -142 -110 -29 30 -30 32 -27 116 4 79 6 87 32 110 31 27 43 29 82 14z"></path>
            <path d="M2404 1981 c-53 -24 -109 -91 -123 -146 -14 -57 -15 -487 0 -539 16 -56 80 -122 141 -142 115 -38 258 0 313 84 41 63 47 111 43 368 l-3 241 -30 48 c-45 73 -112 105 -219 105 -57 0 -93 -6 -122 -19z m154 -122 c59 -20 62 -34 62 -289 l0 -232 -29 -29 c-40 -39 -97 -41 -135 -3 -14 15 -26 38 -26 53 -3 205 3 436 12 456 6 13 25 31 42 39 37 19 36 19 74 5z"></path>
            <path d="M1180 1925 l0 -64 135 -3 135 -3 -85 -95 c-47 -52 -85 -99 -85 -104 0 -4 14 -26 31 -48 31 -39 33 -39 80 -33 43 6 51 4 73 -18 29 -29 41 -95 33 -169 -8 -60 -28 -95 -62 -104 -60 -15 -100 19 -113 97 l-8 44 -74 0 -75 0 1 -51 c4 -134 76 -215 207 -230 121 -14 218 39 256 142 31 81 29 211 -3 280 -25 53 -63 90 -103 100 -12 4 -23 8 -23 11 0 2 34 43 75 91 l75 87 0 67 0 68 -235 0 -235 0 0 -65z"></path>
        </g></defs>
                        <use class="sv-icon" xlink:href="#svg-360" fill="#FFFFFF"></use>
                    </svg>