<svg xmlns="http://www.w3.org/2000/svg" xmlns:xlink="http://www.w3.org/1999/xlink" version="1.1" width="1000" height="1000" viewBox="0 0 1000 1000" xml:space="preserve">
<desc>Created with Fabric.js 3.5.0</desc>
<defs>
</defs>
<rect x="0" y="0" width="100%" height="100%" fill="#ffffff"/>
<g transform="matrix(1.7633 0 0 1.7633 499.9962 499.9963)" id="737648">
<path style="stroke: none; stroke-width: 1; stroke-dasharray: none; stroke-linecap: butt; stroke-dashoffset: 0; stroke-linejoin: miter; stroke-miterlimit: 4; is-custom-font: none; font-file-url: none; fill: rgb(255,255,255); fill-rule: nonzero; opacity: 1;" vector-effect="non-scaling-stroke" transform=" translate(-257.779, -257.7795)" d="m 378.344 332.78 c 25.37 -34.645 40.545 -77.2 40.545 -123.333 c 0 -115.484 -93.961 -209.445 -209.445 -209.445 s -209.444 93.961 -209.444 209.445 s 93.961 209.445 209.445 209.445 c 46.133 0 88.692 -15.177 123.337 -40.547 l 137.212 137.212 l 45.564 -45.564 c 0 -0.001 -137.214 -137.213 -137.214 -137.213 z m -168.899 21.667 c -79.958 0 -145 -65.042 -145 -145 s 65.042 -145 145 -145 s 145 65.042 145 145 s -65.043 145 -145 145 z" stroke-linecap="round"/>
</g>
</svg>